<svg viewBox="0 0 72 72" fill="none" xmlns="http://www.w3.org/2000/svg">
                                                    <path fillRule="evenodd" clipRule="evenodd" d="M35.8435 72C55.8122 72 72 55.8823 72 36C72 16.1177 55.8122 0 35.8435 0C17.495 0 2.33873 13.6083 0 31.2413C0.579057 29.4784 1.31485 27.7956 2.2074 26.1926C4.7486 21.5724 8.27804 17.9946 12.7957 15.4591C17.3699 12.8673 22.537 11.5714 28.297 11.5714C35.3559 11.5714 41.3983 13.4308 46.4242 17.1494C51.4502 20.8681 54.8102 25.9391 56.5043 32.3622H40.5795C39.3936 29.8831 37.6995 27.9956 35.4971 26.6997C33.3512 25.4038 30.8947 24.7558 28.1276 24.7558C23.6664 24.7558 20.0523 26.3053 17.2852 29.4042C14.5181 32.5031 13.1346 36.6444 13.1346 41.828C13.1346 47.0116 14.5181 51.1528 17.2852 54.2517C20.0523 57.3506 23.6664 58.9001 28.1276 58.9001C30.8947 58.9001 33.3512 58.2521 35.4971 56.9562C37.6995 55.6603 39.3936 53.7728 40.5795 51.2937H56.5043C54.8102 57.7169 51.4502 62.7878 46.4242 66.5065C42.33 69.4899 37.5612 71.2582 32.1179 71.8112C33.3427 71.936 34.5856 72 35.8435 72Z" fill="white"/>
                                                    </svg>