<svg width="40" height="40" viewBox="0 0 40 40" fill="none" xmlns="http://www.w3.org/2000/svg">
<path d="M18.2167 37.9167C17.4167 37.9167 16.6167 37.7168 15.8833 37.3001C14.4 36.4668 13.5167 34.9834 13.5167 33.3V24.3834C13.5167 23.5334 12.9667 22.2834 12.45 21.6334L6.11667 14.9834C5.06667 13.9334 4.25 12.1001 4.25 10.7501V6.88342C4.25 4.20009 6.28333 2.1001 8.86667 2.1001H31.0833C33.6333 2.1001 35.7 4.1668 35.7 6.7168V10.4167C35.7 12.1667 34.65 14.1834 33.65 15.1667C33.1667 15.65 32.3667 15.65 31.8833 15.1667C31.4 14.6834 31.4 13.8834 31.8833 13.4C32.5 12.7834 33.2 11.4001 33.2 10.4167V6.7168C33.2 5.55013 32.25 4.6001 31.0833 4.6001H8.88333C7.7 4.6001 6.76667 5.60009 6.76667 6.88342V10.7501C6.76667 11.3668 7.26667 12.5834 7.91667 13.2334L14.3333 19.9834C15.1833 21.0334 16.0167 22.8001 16.0167 24.3834V33.3C16.0167 34.4 16.7667 34.9334 17.1 35.1168C17.8167 35.5168 18.6667 35.5001 19.3333 35.1001L21.6667 33.6C22.25 33.2334 23.0167 33.4001 23.4 33.9834C23.7667 34.5668 23.6 35.3334 23.0167 35.7167L20.6667 37.2335C19.9167 37.6835 19.0667 37.9167 18.2167 37.9167Z" fill="white"/>
<path d="M28.1335 33.7498C24.9335 33.7498 21.9168 32.0499 20.2835 29.2999C19.4168 27.8999 18.9668 26.2665 18.9668 24.5832C18.9668 19.5332 23.0835 15.4165 28.1335 15.4165C33.1835 15.4165 37.3001 19.5332 37.3001 24.5832C37.3001 26.2665 36.8335 27.8999 35.9668 29.3165C34.3501 32.0499 31.3501 33.7498 28.1335 33.7498ZM28.1335 17.9165C24.4501 17.9165 21.4668 20.8998 21.4668 24.5832C21.4668 25.7998 21.8001 26.9831 22.4335 27.9998C23.6335 30.0165 25.8168 31.2498 28.1335 31.2498C30.5001 31.2498 32.6335 30.0498 33.8335 28.0165C34.4668 26.9832 34.8001 25.7998 34.8001 24.5832C34.8001 20.8998 31.8168 17.9165 28.1335 17.9165Z" fill="white"/>
<path d="M30.2495 27.8998C29.9328 27.8998 29.6161 27.7832 29.3661 27.5332L25.1828 23.3499C24.6995 22.8665 24.6995 22.0665 25.1828 21.5832C25.6661 21.0999 26.4661 21.0999 26.9495 21.5832L31.1328 25.7666C31.6161 26.2499 31.6161 27.0499 31.1328 27.5332C30.8995 27.7832 30.5828 27.8998 30.2495 27.8998Z" fill="white"/>
<path d="M26.0329 27.9497C25.7163 27.9497 25.3996 27.833 25.1496 27.583C24.6663 27.0997 24.6663 26.2997 25.1496 25.8164L29.3329 21.633C29.8163 21.1497 30.6163 21.1497 31.0996 21.633C31.5829 22.1163 31.5829 22.9163 31.0996 23.3997L26.9163 27.583C26.6663 27.833 26.3496 27.9497 26.0329 27.9497Z" fill="white"/>
<path d="M18.2167 37.9168C17.4167 37.9168 16.6167 37.7169 15.9 37.3169C14.4167 36.4835 13.5333 34.9835 13.5333 33.3001V24.3835C13.5333 23.5502 12.9833 22.2835 12.45 21.6335L6.11667 14.9835C5.06667 13.9001 4.25 12.0835 4.25 10.7502V6.86682C4.25 4.18349 6.28333 2.0835 8.86667 2.0835H31.1C33.65 2.0835 35.7167 4.1502 35.7167 6.7002V10.4001C35.7167 12.1501 34.6833 14.1169 33.6833 15.1502L30.6833 17.8002C30.3833 18.0668 29.95 18.1668 29.5667 18.0835C29.1167 17.9668 28.6333 17.9168 28.1333 17.9168C24.45 17.9168 21.4667 20.9002 21.4667 24.5835C21.4667 25.8002 21.8 26.9835 22.4333 28.0168C22.9667 28.9002 23.6833 29.6335 24.5167 30.1502C24.8833 30.3835 25.1167 30.7835 25.1167 31.2168V31.7835C25.1167 33.1002 24.3167 34.9502 22.9833 35.7335L20.6833 37.2169C19.9333 37.6835 19.0667 37.9168 18.2167 37.9168ZM8.88333 4.5835C7.7 4.5835 6.76667 5.58349 6.76667 6.86682V10.7502C6.76667 11.3502 7.26667 12.5835 7.93333 13.2502L14.35 20.0002C15.2 21.0502 16.05 22.8335 16.05 24.4002V33.3168C16.05 34.4168 16.8167 34.9669 17.1333 35.1502C17.85 35.5502 18.7 35.5335 19.35 35.1335L21.6833 33.6335C22.1333 33.3668 22.5833 32.5169 22.6167 31.9169C21.7 31.2335 20.9 30.3501 20.3 29.3501C19.4333 27.9335 18.9667 26.3002 18.9667 24.6335C18.9667 19.5835 23.0833 15.4669 28.1333 15.4669C28.6 15.4669 29.0667 15.5002 29.5 15.5669L31.9667 13.3835C32.5333 12.8002 33.2333 11.4168 33.2333 10.4335V6.73346C33.2333 5.56679 32.2833 4.61686 31.1167 4.61686H8.88333V4.5835Z" fill="white"/>
</svg>
