<svg width="40" height="40" viewBox="0 0 40 40" fill="none" xmlns="http://www.w3.org/2000/svg">
<path d="M28.1335 33.7498C24.9335 33.7498 21.9168 32.0499 20.2835 29.2999C19.4168 27.8999 18.9668 26.2665 18.9668 24.5832C18.9668 19.5332 23.0835 15.4165 28.1335 15.4165C33.1835 15.4165 37.3001 19.5332 37.3001 24.5832C37.3001 26.2665 36.8335 27.8999 35.9668 29.3165C34.3501 32.0499 31.3501 33.7498 28.1335 33.7498ZM28.1335 17.9165C24.4501 17.9165 21.4668 20.8998 21.4668 24.5832C21.4668 25.7998 21.8001 26.9831 22.4335 27.9998C23.6335 30.0165 25.8168 31.2498 28.1335 31.2498C30.5001 31.2498 32.6335 30.0498 33.8335 28.0165C34.4668 26.9832 34.8001 25.7998 34.8001 24.5832C34.8001 20.8998 31.8168 17.9165 28.1335 17.9165Z" fill="white"/>
<path d="M31.1003 25.7998H25.1836C24.5003 25.7998 23.9336 25.2331 23.9336 24.5498C23.9336 23.8665 24.5003 23.2998 25.1836 23.2998H31.1003C31.7836 23.2998 32.3503 23.8665 32.3503 24.5498C32.3503 25.2331 31.7836 25.7998 31.1003 25.7998Z" fill="white"/>
<path d="M28.1328 28.8165C27.4495 28.8165 26.8828 28.2498 26.8828 27.5665V21.6665C26.8828 20.9832 27.4495 20.4165 28.1328 20.4165C28.8161 20.4165 29.3828 20.9832 29.3828 21.6665V27.5831C29.3828 28.2665 28.8328 28.8165 28.1328 28.8165Z" fill="white"/>
<path d="M18.2167 37.9168C17.4167 37.9168 16.6167 37.7169 15.9 37.3169C14.4167 36.4835 13.5333 34.9835 13.5333 33.3001V24.3835C13.5333 23.5502 12.9833 22.2835 12.45 21.6335L6.11667 14.9835C5.06666 13.9001 4.25 12.0835 4.25 10.7502V6.86682C4.25 4.18349 6.28333 2.0835 8.86667 2.0835H31.1C33.65 2.0835 35.7167 4.1502 35.7167 6.7002V10.4001C35.7167 12.1501 34.6833 14.1169 33.6833 15.1502L30.6833 17.8002C30.3833 18.0668 29.9667 18.1668 29.5667 18.0835C29.1167 17.9668 28.6333 17.9168 28.1333 17.9168C24.45 17.9168 21.4667 20.9002 21.4667 24.5835C21.4667 25.8002 21.8 26.9835 22.4333 28.0168C22.9667 28.9002 23.6833 29.6335 24.5167 30.1502C24.8833 30.3835 25.1167 30.7835 25.1167 31.2168V31.7835C25.1167 33.1002 24.3167 34.9502 22.9833 35.7335L20.6833 37.2169C19.9333 37.6835 19.0667 37.9168 18.2167 37.9168ZM8.88334 4.5835C7.7 4.5835 6.76667 5.58349 6.76667 6.86682V10.7502C6.76667 11.3502 7.26667 12.5835 7.93333 13.2502L14.35 20.0002C15.2 21.0502 16.05 22.8335 16.05 24.4002V33.3168C16.05 34.4168 16.8167 34.9669 17.1333 35.1502C17.85 35.5502 18.7 35.5335 19.35 35.1335L21.6833 33.6335C22.1333 33.3668 22.5833 32.5169 22.6167 31.9169C21.7 31.2335 20.9 30.3501 20.3 29.3501C19.4333 27.9335 18.9667 26.3002 18.9667 24.6335C18.9667 19.5835 23.0833 15.4669 28.1333 15.4669C28.6 15.4669 29.0667 15.5002 29.5 15.5669L31.9667 13.3835C32.5333 12.8002 33.2333 11.4168 33.2333 10.4335V6.73346C33.2333 5.56679 32.2833 4.61686 31.1167 4.61686H8.88334V4.5835Z" fill="white"/>
</svg>
