<svg width="558" height="155" viewBox="0 0 558 155" fill="none" xmlns="http://www.w3.org/2000/svg">
<path opacity="0.3" d="M246.778 48.2532C153.662 -8.98377 43.794 -3.64165 0.499552 6.18402L0 155H557L556.001 81.1644C491.725 94.0427 339.895 105.49 246.778 48.2532Z" fill="url(#paint0_linear_98_1105)"/>
<path opacity="0.5" d="M246.778 75.8005C127.964 33.0833 43.794 77.2097 0.499552 84.4998L0 155H557C557 155 557.333 102.76 557 84.5C494 119.5 417 137 246.778 75.8005Z" fill="url(#paint1_linear_98_1105)"/>
<path opacity="0.5" d="M310.287 80.6638C429.07 40.5697 513.717 47.1576 557 54V155H0.147949C0.147949 155 -0.184998 41.1392 0.147949 24C18.5 84 140.111 138.105 310.287 80.6638Z" fill="url(#paint2_linear_98_1105)"/>
<defs>
<linearGradient id="paint0_linear_98_1105" x1="609.371" y1="-1.28022e-06" x2="548.887" y2="285.462" gradientUnits="userSpaceOnUse">
<stop offset="0.00951412" stop-color="#A026DA"/>
<stop offset="1" stop-color="#4738F1"/>
</linearGradient>
<linearGradient id="paint1_linear_98_1105" x1="609.532" y1="57.417" x2="584.928" y2="241.921" gradientUnits="userSpaceOnUse">
<stop offset="0.00951412" stop-color="#A026DA"/>
<stop offset="1" stop-color="#4738F1"/>
</linearGradient>
<linearGradient id="paint2_linear_98_1105" x1="-52.3705" y1="24" x2="-8.63056" y2="268.26" gradientUnits="userSpaceOnUse">
<stop offset="0.00951412" stop-color="#A026DA"/>
<stop offset="1" stop-color="#4738F1"/>
</linearGradient>
</defs>
</svg>
