<svg width="282" height="292" viewBox="0 0 282 292" fill="none" xmlns="http://www.w3.org/2000/svg">
<g opacity="0.3">
<path opacity="0.3" d="M83.7567 25.4884C187.959 -7.5071 255.782 -94.1066 276.669 -133.282L164.43 -231L-199.903 190.32L-143.4 237.86C-111.098 180.817 -20.4452 58.4839 83.7567 25.4884Z" fill="url(#paint0_linear_98_1110)"/>
<path opacity="0.5" d="M62.9196 7.46994C172.948 -54.4614 194.626 -146.991 217.43 -184.508L164.43 -231L-199.903 190.32C-199.903 190.32 -160.607 224.742 -146.576 236.434C-131.842 165.887 -94.7138 96.1967 62.9196 7.46994Z" fill="url(#paint1_linear_98_1110)"/>
<path opacity="0.5" d="M17.7 52.3272C-29.6684 168.402 -90.0189 228.12 -123.506 256.384L-199.903 190.32L164.333 -230.888C164.333 -230.888 250.676 -156.664 263.423 -145.201C206.034 -170.565 85.5629 -113.968 17.7 52.3272Z" fill="url(#paint2_linear_98_1110)"/>
</g>
<defs>
<linearGradient id="paint0_linear_98_1110" x1="-116.915" y1="331.319" x2="-293.279" y2="98.848" gradientUnits="userSpaceOnUse">
<stop offset="0.00951412" stop-color="#A026DA"/>
<stop offset="1" stop-color="#4738F1"/>
</linearGradient>
<linearGradient id="paint1_linear_98_1110" x1="-160.452" y1="293.885" x2="-283.919" y2="154.59" gradientUnits="userSpaceOnUse">
<stop offset="0.00951412" stop-color="#A026DA"/>
<stop offset="1" stop-color="#4738F1"/>
</linearGradient>
<linearGradient id="paint2_linear_98_1110" x1="297.775" y1="-184.927" x2="84.4044" y2="-311.611" gradientUnits="userSpaceOnUse">
<stop offset="0.00951412" stop-color="#A026DA"/>
<stop offset="1" stop-color="#4738F1"/>
</linearGradient>
</defs>
</svg>
