<svg width="29" height="29" viewBox="0 0 29 29" fill="#FFD700" xmlns="http://www.w3.org/2000/svg">
<path d="M13.1861 2.2109C13.6266 0.811384 15.6072 0.811386 16.0477 2.2109L17.9529 8.26358C18.2806 9.30477 19.246 10.013 20.3375 10.013H26.6346C28.0761 10.013 28.6878 11.8481 27.5345 12.713L22.332 16.6148C21.4835 17.2511 21.1289 18.3537 21.4473 19.3654L23.4086 25.5961C23.8462 26.9865 22.2439 28.121 21.0778 27.2465L16.1169 23.5259C15.228 22.8592 14.0058 22.8593 13.1169 23.5259L8.15601 27.2465C6.98989 28.121 5.38759 26.9865 5.82524 25.5961L7.78645 19.3654C8.10491 18.3537 7.7503 17.2511 6.90177 16.6148L1.69926 12.713C0.546023 11.8481 1.15771 10.013 2.59924 10.013H8.89627C9.98783 10.013 10.9532 9.30477 11.2809 8.26358L13.1861 2.2109Z" stroke="#FFD700"/>
</svg>